# xmcd CD database file
#
# Track frame offsets:
#	182
#	21447
#	39557
#	54012
#	69840
#	90012
#	111067
#	130450
#	146822
#	166402
#
# Disc length: 2535 seconds
#
# Revision: 5
# Processed by: cddbd v1.5.1PL0 Copyright (c) Steve Scherf et al.
# Submitted via: CDex 1.51
#
DISCID=7c09e50a
DTITLE=The Kinsey Report - Powerhouse
DYEAR=1990
DGENRE=Blues
TTITLE0=Image Maker
TTITLE1=Teenage Rage
TTITLE2=I'll Be Singing The Blues
TTITLE3=Bad Talking
TTITLE4=Hit The Spot
TTITLE5=Heart's On Fire
TTITLE6=Keep On Moving
TTITLE7=Walk With Balance
TTITLE8=Jammin' Out Tonight
TTITLE9=Good Mornin' Mississippi
EXTD=more info - MillenniumMusicProjectFormat - SYNTAX=SongTitle{Subtitle}[miscInfo](Lyricist;Composer;Date,Artist,Location,State,Country) YEAR: 1990
EXTT0=
EXTT1=
EXTT2=
EXTT3=
EXTT4=
EXTT5=
EXTT6=
EXTT7=
EXTT8=
EXTT9=
PLAYORDER=
